<?xml version="1.0" encoding="UTF-8" standalone="no"?>
<!-- Created with Inkscape (http://www.inkscape.org/) -->

<svg
  width="434.92682"
  height="434.9278"
  viewBox="0 0 115.07434 115.07464"
  version="1.1"
  id="svg5"
  xml:space="preserve"
  xmlns="http://www.w3.org/2000/svg"
  xmlns:svg="http://www.w3.org/2000/svg"
>
  <defs id="defs2" />
  <g id="layer1" transform="translate(-799.61648,-720.3384)">
    <path
      id="path648"
      d="m 824.51105,758.66582 a 39.350811,39.350811 0 0 0 -23.47454,35.97661 39.350811,39.350811 0 0 0 39.35057,39.35057 39.350811,39.350811 0 0 0 34.10851,-19.73058 39.350811,39.350811 0 0 1 -15.87655,3.37447 39.350811,39.350811 0 0 1 -39.35108,-39.35057 39.350811,39.350811 0 0 1 5.24309,-19.6205 z"
    />
    <path
      id="path650"
      d="m 313.83856,329.97029 0,-30.60159 26.50175,15.30079 z m -2.79417,-37.34731 -21.63859,-21.6386 29.55887,-7.92027 z m -28.38431,-24.43277 -30.60159,0 15.30079,-26.50175 z"
      transform="translate(573.02777,479.97273)"
      class="UnoptimicedTransforms"
    />
  </g>
</svg>
