<?xml version="1.0" encoding="UTF-8" standalone="no"?>
<!-- Created with Inkscape (http://www.inkscape.org/) -->

<svg
   width="107.90998mm"
   height="14.241075mm"
   viewBox="0 0 107.90998 14.241075"
   version="1.1"
   id="svg12274"
   xmlns="http://www.w3.org/2000/svg"
   xmlns:svg="http://www.w3.org/2000/svg">
  <defs
     id="defs12271" />
  <g
     id="layer1"
     transform="translate(-65.793518,-38.229763)">
    <g
       id="path11199"
       style="font-size:19.05px;font-family:'Atkinson Hyperlegible';-inkscape-font-specification:'Atkinson Hyperlegible';letter-spacing:1.05833px;word-spacing:-1.05833px;fill:#30a65d;stroke:none;stroke-width:1.05833;stroke-linecap:round;stroke-linejoin:round"
       transform="translate(-647.18518,44.016872)">
      <path
         style="color:#000000;-inkscape-font-specification:'Atkinson Hyperlegible';fill:#000000;stroke-linecap:butt;stroke-linejoin:miter;-inkscape-stroke:none"
         d="m 724.68173,-1.7716497 h 1.6002 v 5.5625998 q 0,0.5524499 0.0571,1.0477499 0.0762,0.4953 0.28575,0.8763 0.20955,0.36195 0.59055,0.5905499 0.40005,0.20955 1.04775,0.20955 1.143,0 1.77165,-0.7810499 0.62865,-0.78105 0.62865,-2.3050499 v -5.2006498 h 1.6002 v 9.4678496 h -1.20015 l -0.40005,-1.3716 q -0.40005,0.6858 -1.08585,1.143 -0.6858,0.4572 -1.8669,0.4572 -0.81915,0 -1.4097,-0.2667 -0.5715,-0.2667 -0.93345,-0.74295 -0.36195,-0.4953 -0.5334,-1.1620499 -0.1524,-0.6858 -0.1524,-1.4859 v -6.0388497 z"
         id="path11226" />
      <path
         style="color:#000000;-inkscape-font-specification:'Atkinson Hyperlegible';fill:#000000;stroke-linecap:butt;stroke-linejoin:miter;-inkscape-stroke:none"
         d="m 724.68164,-2.3007813 a 0.52921795,0.52921795 0 0 0 -0.5293,0.5292969 v 6.0390625 c 0,0.5669972 0.055,1.0998693 0.16602,1.5996094 a 0.52921795,0.52921795 0 0 0 0.004,0.017578 c 0.12879,0.5008763 0.33263,0.9524068 0.61718,1.3417969 a 0.52921795,0.52921795 0 0 0 0.006,0.00781 c 0.29369,0.3864346 0.68123,0.6916037 1.13281,0.9023438 a 0.52921795,0.52921795 0 0 0 0.006,0.00391 c 0.47735,0.2155739 1.02343,0.3125 1.62696,0.3125 0.85568,0 1.5863,-0.1623499 2.16015,-0.5449219 0.2233,-0.148861 0.351,-0.3826245 0.53711,-0.5664062 l 0.14649,0.5019531 a 0.52921795,0.52921795 0 0 0 0.50781,0.3808594 h 1.20117 a 0.52921795,0.52921795 0 0 0 0.5293,-0.5292969 v -9.4667969 a 0.52921795,0.52921795 0 0 0 -0.5293,-0.5292969 h -1.59961 a 0.52921795,0.52921795 0 0 0 -0.52929,0.5292969 v 5.2011719 c 0,0.9432388 -0.19803,1.5829164 -0.51172,1.9726562 -0.32088,0.3986689 -0.71791,0.5839844 -1.35938,0.5839844 -0.3684,0 -0.6257,-0.065365 -0.78906,-0.1484375 -0.17319,-0.1073269 -0.29796,-0.2297228 -0.38867,-0.3847656 -0.10282,-0.1888522 -0.178,-0.4155457 -0.22071,-0.6855469 -0.0348,-0.305337 -0.0547,-0.6299494 -0.0547,-0.9765625 v -5.5625 a 0.52921795,0.52921795 0 0 0 -0.5293,-0.5292969 z m 0.5293,1.0585938 h 0.54101 v 5.0332031 c 0,0.3865307 0.0199,0.754986 0.0606,1.1074219 a 0.52921795,0.52921795 0 0 0 0.004,0.021484 c 0.0588,0.3820977 0.17044,0.7356718 0.34375,1.0507812 a 0.52921795,0.52921795 0 0 0 0.006,0.00977 c 0.18517,0.3198422 0.45439,0.5855254 0.77734,0.7792969 a 0.52921795,0.52921795 0 0 0 0.0273,0.013672 c 0.37068,0.1941663 0.80411,0.2714844 1.29297,0.2714844 0.45962,0 0.88516,-0.1012452 1.26758,-0.2792969 -0.0932,0.079193 -0.14162,0.1907655 -0.24805,0.2617187 -0.34054,0.2270275 -0.85314,0.3691407 -1.57226,0.3691407 -0.48621,0 -0.87622,-0.080037 -1.18555,-0.21875 l -0.002,-0.00195 c -0.30767,-0.1440393 -0.54254,-0.3319466 -0.73047,-0.578125 -0.19399,-0.2667588 -0.34218,-0.5851927 -0.44141,-0.9648437 -0.0914,-0.4132591 -0.14062,-0.8675463 -0.14062,-1.3652344 z m 5.98242,0 h 0.54101 v 8.4101562 h -0.27343 l -0.28907,-0.9921875 a 0.52921795,0.52921795 0 0 0 -0.68359,-0.2578125 c 0.46309,-0.640845 0.70508,-1.4607085 0.70508,-2.4882812 z"
         id="path11228" />
    </g>
    <g
       id="path11201"
       style="font-size:19.05px;font-family:'Atkinson Hyperlegible';-inkscape-font-specification:'Atkinson Hyperlegible';letter-spacing:1.05833px;word-spacing:-1.05833px;fill:#30a65d;stroke:none;stroke-width:1.05833;stroke-linecap:round;stroke-linejoin:round"
       transform="translate(-647.18518,44.016872)">
      <path
         style="color:#000000;-inkscape-font-specification:'Atkinson Hyperlegible';fill:#000000;stroke-linecap:butt;stroke-linejoin:miter;-inkscape-stroke:none"
         d="m 739.95134,-1.9049997 q 1.27635,0 2.19075,0.62865 0.9144,0.62864993 1.3716,1.50494989 l -1.46685,0.53339998 q -0.32385,-0.57149998 -0.9144,-0.91439996 -0.5715,-0.34289999 -1.2954,-0.34289999 -0.5334,0 -1.0287,0.20954999 -0.4953,0.20955 -0.8763,0.64769998 -0.36195,0.41909998 -0.59055,1.08584991 -0.22859,0.6477 -0.22859,1.54305 0,0.8953499 0.22859,1.5620999 0.2286,0.6477 0.6096,1.08585 0.381,0.43815 0.85725,0.6667499 0.4953,0.20955 1.0287,0.20955 0.78105,0 1.35255,-0.3428999 0.5715,-0.36195 0.89535,-0.89535 l 1.46685,0.5334 q -0.5334,0.9143999 -1.524,1.5239999 -0.9906,0.59055 -2.2479,0.59055 -1.00965,0 -1.8288,-0.36195 -0.81915,-0.36195 -1.39064,-1.00965 -0.5715,-0.6667499 -0.8763,-1.5620999 -0.3048,-0.9144 -0.3048,-1.9811999 0,-1.0668 0.32385,-1.9621499 0.32385,-0.89535 0.9144,-1.54304998 0.59054,-0.66675002 1.42874,-1.02869992 0.85725,-0.381 1.905,-0.381 z"
         id="path11232" />
      <path
         style="color:#000000;-inkscape-font-specification:'Atkinson Hyperlegible';fill:#000000;stroke-linecap:butt;stroke-linejoin:miter;-inkscape-stroke:none"
         d="m 739.95117,-2.4335938 c -0.76115,1e-7 -1.47161,0.1384611 -2.11523,0.4238282 -0.62328,0.2691406 -1.16581,0.6592242 -1.60938,1.1582031 -5.9e-4,6.5056e-4 -10e-4,0.001302 -0.002,0.001953 -0.44218,0.48551605 -0.78284,1.06240775 -1.01953,1.71679688 -0.23877,0.66011372 -0.35547,1.37783242 -0.35547,2.14257812 0,0.7615959 0.10931,1.4802704 0.33203,2.1484375 a 0.52921795,0.52921795 0 0 0 0.002,0.00391 c 0.2228,0.6544779 0.5477,1.238259 0.97461,1.7363281 a 0.52921795,0.52921795 0 0 0 0.006,0.00391 c 0.43163,0.489184 0.96105,0.8744573 1.57227,1.1445313 0.61961,0.2737834 1.30663,0.40625 2.04297,0.40625 0.92105,0 1.77455,-0.2199402 2.51953,-0.6640625 a 0.52921795,0.52921795 0 0 0 0.006,-0.00391 c 0.72487,-0.4460753 1.30343,-1.0204418 1.70508,-1.7089843 A 0.52921795,0.52921795 0 0 0 743.73242,5.3125 l -1.4668,-0.5332031 a 0.52921795,0.52921795 0 0 0 -0.63281,0.2226562 c -0.17086,0.2814272 -0.40539,0.5168632 -0.72265,0.71875 -0.28854,0.1714697 -0.63222,0.265625 -1.07227,0.265625 -0.28083,0 -0.54623,-0.055282 -0.80859,-0.1640625 -0.24497,-0.1190239 -0.4698,-0.2898796 -0.67969,-0.53125 -0.20282,-0.2332398 -0.3739,-0.5322936 -0.50781,-0.9101562 -0.12883,-0.3757613 -0.19922,-0.838759 -0.19922,-1.390625 0,-0.5518661 0.0703,-1.0075485 0.19726,-1.3671875 a 0.52921795,0.52921795 0 0 0 0.002,-0.00391 c 0.13541,-0.3949683 0.30401,-0.69418789 0.49023,-0.91015623 0.20691,-0.23794133 0.42849,-0.40070879 0.68164,-0.50781249 0.26742,-0.11314003 0.53792,-0.16796876 0.82422,-0.16796876 0.39905,1e-8 0.72501,0.08969214 1.02148,0.26757813 a 0.52921795,0.52921795 0 0 0 0.008,0.003906 c 0.31962,0.18558952 0.54849,0.41828871 0.71875,0.71875005 a 0.52921795,0.52921795 0 0 0 0.64258,0.2363281 l 1.46679,-0.53320315 a 0.52921795,0.52921795 0 0 0 0.28711,-0.7421875 c -0.34772,-0.66645736 -0.87075,-1.23646275 -1.54101,-1.69726555 -0.70432,-0.4842169 -1.55246,-0.7207032 -2.49024,-0.7207032 z m 0,1.0585938 c 0.76402,0 1.37574,0.181174 1.89063,0.53515625 0.34904,0.23996701 0.53676,0.5452351 0.76562,0.83398437 L 742.16406,0.15625 c -0.22778,-0.27952107 -0.44124,-0.57487689 -0.76172,-0.76171875 -0.46514,-0.27866254 -0.99896,-0.41992185 -1.56445,-0.41992185 -0.42489,0 -0.84335,0.0856934 -1.23633,0.2519531 -0.40724,0.17229602 -0.76726,0.44280445 -1.06836,0.7890625 a 0.52921795,0.52921795 0 0 0 -0.002,0 c -0.29601,0.3427504 -0.5203,0.76639225 -0.68945,1.2597656 -0.17704,0.5031474 -0.25782,1.0743379 -0.25782,1.7148438 0,0.6419326 0.0819,1.2211372 0.25782,1.734375 a 0.52921795,0.52921795 0 0 0 0,0.00391 c 0.17064,0.4834906 0.4066,0.9078293 0.71093,1.2578125 0.29574,0.3400972 0.64058,0.6112241 1.02735,0.796875 a 0.52921795,0.52921795 0 0 0 0.0215,0.00977 c 0.39298,0.1662597 0.81144,0.2519532 1.23633,0.2519532 0.59814,0 1.15085,-0.1366047 1.62305,-0.4199219 a 0.52921795,0.52921795 0 0 0 0.0117,-0.00586 c 0.30444,-0.1928163 0.51096,-0.4716069 0.73242,-0.7363281 l 0.40234,0.1464844 c -0.25793,0.2969365 -0.47452,0.6167873 -0.85156,0.8496093 -5.3e-4,3.175e-4 -10e-4,-3.171e-4 -0.002,0 -0.57542,0.3426442 -1.21996,0.5175782 -1.97461,0.5175782 -0.60987,0 -1.14265,-0.1095432 -1.61524,-0.3183594 -0.47834,-0.211359 -0.8719,-0.4977151 -1.20117,-0.8691406 l -0.002,-0.00195 c -0.33427,-0.3905006 -0.5921,-0.8482987 -0.77539,-1.3867187 -0.18292,-0.5500866 -0.27735,-1.1511344 -0.27735,-1.8105469 0,-0.6576529 0.0999,-1.247565 0.29297,-1.78125 0.19479,-0.53853236 0.46229,-0.98950769 0.80664,-1.36718747 a 0.52921795,0.52921795 0 0 0 0.006,-0.005859 c 0.34282,-0.38705392 0.75043,-0.68218276 1.24219,-0.89453123 a 0.52921795,0.52921795 0 0 0 0.006,-0.00195 C 738.7601,-1.2625198 739.31681,-1.375 739.95117,-1.375 Z"
         id="path11234" />
    </g>
    <g
       id="path11203"
       style="font-size:19.05px;font-family:'Atkinson Hyperlegible';-inkscape-font-specification:'Atkinson Hyperlegible';letter-spacing:1.05833px;word-spacing:-1.05833px;fill:#30a65d;stroke:none;stroke-width:1.05833;stroke-linecap:round;stroke-linejoin:round"
       transform="translate(-647.18518,44.016872)">
      <path
         style="color:#000000;-inkscape-font-specification:'Atkinson Hyperlegible';fill:#000000;stroke-linecap:butt;stroke-linejoin:miter;-inkscape-stroke:none"
         d="m 752.34443,1.8669001 q 0.0381,-1.20014992 -0.47625,-1.8478499 -0.51435,-0.64769997 -1.65735,-0.64769997 -0.85725,0 -1.4097,0.40004998 -0.5334,0.38099999 -0.6858,1.06679996 l -1.54305,-0.45719998 q 0.381,-1.08584996 1.35255,-1.67639989 0.9906,-0.6096 2.26695,-0.6096 1.96215,0 2.83845,0.91439994 0.89535,0.91439997 0.9144,2.91464986 l 0.019,2.2097999 q 0.019,1.20015 0.0953,2.0574 0.0952,0.8381999 0.2286,1.5049499 h -1.46685 l -0.381,-1.2954 q -0.43815,0.7239 -1.20015,1.12395 -0.762,0.40005 -2.0193,0.40005 -0.66675,0 -1.2573,-0.1905 -0.59055,-0.17145 -1.04775,-0.51435 -0.43815,-0.36195 -0.70485,-0.85725 -0.24765,-0.5143499 -0.24765,-1.1620499 0,-0.8382 0.4572,-1.4096999 0.4572,-0.5715 1.27635,-0.93345 0.8382,-0.381 2.0193,-0.59055 1.1811,-0.2286 2.6289,-0.40005 z m -4.6101,3.2956499 q 0,0.66675 0.47625,1.08585 0.4953,0.4000499 1.35255,0.4000499 0.55245,0 1.0668,-0.13335 0.5334,-0.1524 0.93345,-0.4762499 0.4191,-0.3429 0.66675,-0.89535 0.24765,-0.5715 0.24765,-1.4096999 v -0.59055 q -1.08585,0.1143 -1.96215,0.2667 -0.8763,0.13335 -1.50495,0.36195 -0.6096,0.2285999 -0.9525,0.5714999 -0.32385,0.32385 -0.32385,0.81915 z"
         id="path11238" />
      <path
         style="color:#000000;-inkscape-font-specification:'Atkinson Hyperlegible';fill:#000000;stroke-linecap:butt;stroke-linejoin:miter;-inkscape-stroke:none"
         d="m 750.19141,-2.4335938 c -0.93515,0 -1.79618,0.2279349 -2.54297,0.6875001 -0.74322,0.4525097 -1.28589,1.12386282 -1.57617,1.95117183 a 0.52921795,0.52921795 0 0 0 0.3496,0.68359375 l 1.54297,0.45703122 a 0.52921795,0.52921795 0 0 0 0.66797,-0.3925781 c 0.0777,-0.34983533 0.22377,-0.5713824 0.47656,-0.75195312 a 0.52921795,0.52921795 0 0 0 0.002,-0.001953 c 0.26299,-0.19044118 0.61042,-0.29882813 1.09961,-0.29882812 0.66204,-10e-9 1.018,0.16495585 1.24218,0.44726562 0.17258,0.21731605 0.2146,0.65560022 0.26172,1.08007812 -0.73659,0.097202 -1.46154,0.1965477 -2.09179,0.3183593 -0.81825,0.1451734 -1.53098,0.3504883 -2.14063,0.6269532 -0.60698,0.2682027 -1.1095,0.6290645 -1.47656,1.0878906 -0.38363,0.4795424 -0.57227,1.0852232 -0.57227,1.7402344 0,0.4992421 0.098,0.9695012 0.30078,1.390625 a 0.52921795,0.52921795 0 0 0 0.01,0.021484 c 0.20964,0.3893295 0.49116,0.7304662 0.83398,1.0136719 a 0.52921795,0.52921795 0 0 0 0.0195,0.015625 c 0.3568,0.2676037 0.76402,0.4671794 1.21093,0.5976563 0.44687,0.1432367 0.91998,0.2128906 1.41211,0.2128906 0.89433,0 1.65157,-0.1366061 2.26563,-0.4589844 0.28483,-0.1495381 0.45115,-0.4282928 0.68164,-0.640625 l 0.14453,0.4921875 a 0.52921795,0.52921795 0 0 0 0.50781,0.3789063 h 1.4668 a 0.52921795,0.52921795 0 0 0 0.51953,-0.6328125 c -0.0845,-0.4224308 -0.15894,-0.9065815 -0.2207,-1.4472657 v -0.00195 c -0.0491,-0.5522715 -0.0812,-1.2255268 -0.0937,-2.0136719 V 4.125 l -0.0176,-2.2050781 c -0.0134,-1.41050156 -0.33521,-2.53321759 -1.06445,-3.2792969 -0.72076,-0.7506922 -1.82963,-1.0742188 -3.21875,-1.0742188 z m 0,1.0585938 c 1.22589,0 2.00934,0.2828484 2.45703,0.75 a 0.52921795,0.52921795 0 0 0 0.004,0.003906 c 0.46327,0.47312377 0.75172,1.29545878 0.76368,2.5507812 l 0.0176,2.2089844 a 0.52921795,0.52921795 0 0 0 0,0.00391 c 0.0128,0.8093151 0.0452,1.5063465 0.0977,2.0957031 A 0.52921795,0.52921795 0 0 0 753.5332,6.25 c 0.0384,0.3378629 0.0927,0.618253 0.14063,0.9179687 h -0.45703 l -0.26953,-0.9160156 a 0.52921795,0.52921795 0 0 0 -0.72266,-0.2382812 c 0.17233,-0.2099311 0.37189,-0.3946626 0.48828,-0.6542969 a 0.52921795,0.52921795 0 0 0 0.002,-0.00586 c 0.20263,-0.4676 0.29297,-1.0082265 0.29297,-1.6191406 V 3.1425781 a 0.52921795,0.52921795 0 0 0 -0.58594,-0.5253906 c -0.72989,0.076831 -1.39007,0.1660849 -1.98632,0.2695313 -0.61006,0.092834 -1.14322,0.2205788 -1.60547,0.3886718 a 0.52921795,0.52921795 0 0 0 -0.006,0.00195 c -0.45731,0.171489 -0.84273,0.3935146 -1.14063,0.6914062 -0.31127,0.3112779 -0.47851,0.747829 -0.47851,1.1933594 0,0.5704911 0.23427,1.1130356 0.65625,1.484375 a 0.52921795,0.52921795 0 0 0 0.0176,0.013672 c 0.44629,0.3604647 1.02978,0.5175782 1.68359,0.5175782 0.41088,0 0.81372,-0.04994 1.20117,-0.1503907 a 0.52921795,0.52921795 0 0 0 0.0117,-0.00391 c 0.2086,-0.0596 0.37301,-0.1914092 0.56055,-0.2871094 -0.12333,0.096653 -0.19412,0.2427832 -0.3418,0.3203125 -0.40194,0.2110213 -0.99136,0.3398438 -1.77344,0.3398438 -0.3941,0 -0.75738,-0.056879 -1.0957,-0.1660157 a 0.52921795,0.52921795 0 0 0 -0.0137,-0.00391 c -0.33358,-0.096844 -0.61839,-0.2391679 -0.86719,-0.4238281 -0.23258,-0.1941064 -0.4157,-0.4182542 -0.55859,-0.6796875 -0.12487,-0.2627118 -0.19336,-0.5613299 -0.19336,-0.921875 0,-0.4625877 0.11583,-0.7976215 0.34179,-1.0800782 0.24254,-0.3031731 0.59096,-0.5649001 1.07618,-0.7792968 a 0.52921795,0.52921795 0 0 0 0.006,-0.00195 c 0.50683,-0.2303781 1.13829,-0.4189097 1.89257,-0.5527344 a 0.52921795,0.52921795 0 0 0 0.008,0 c 0.77202,-0.1494246 1.63523,-0.2814851 2.58984,-0.3945313 a 0.52921795,0.52921795 0 0 0 0.4668,-0.5097656 c 0.0279,-0.8785974 -0.144,-1.63192874 -0.58985,-2.19335938 -0.46161,-0.58128932 -1.21031,-0.84765622 -2.07226,-0.84765622 -0.65313,0 -1.24539,0.15974082 -1.71875,0.5019531 -0.29279,0.21003992 -0.41025,0.56469026 -0.57227,0.88476563 l -0.4707,-0.14062501 c 0.21168,-0.33929616 0.38343,-0.70882597 0.75,-0.93164062 a 0.52921795,0.52921795 0 0 0 0.004,-0.001953 C 748.77713,-1.1989372 749.42475,-1.375 750.19141,-1.375 Z m 1.75586,5.125 c -0.002,0.4973655 -0.0772,0.8930011 -0.20313,1.1835937 -0.13571,0.3002171 -0.30618,0.5239529 -0.51562,0.6953125 -0.20689,0.1670396 -0.44809,0.2912751 -0.73829,0.375 -0.29601,0.07605 -0.60477,0.1152344 -0.92773,0.1152344 -0.48348,0 -0.79382,-0.109844 -1.00781,-0.2792969 -0.2049,-0.18407 -0.29102,-0.3647765 -0.29102,-0.6777343 0,-0.214869 0.0474,-0.3247909 0.16797,-0.4453125 0.15822,-0.1582236 0.40813,-0.3145354 0.75977,-0.4472657 l 0.006,-0.00195 c 0.37513,-0.135935 0.84247,-0.249381 1.39843,-0.3339843 a 0.52921795,0.52921795 0 0 0 0.01,-0.00195 c 0.39662,-0.068978 0.87501,-0.1241475 1.3418,-0.1816406 z"
         id="path11240" />
    </g>
    <path
       d="m 111.26584,49.007972 q 0.1143,0.4191 0.3429,0.7239 0.24765,0.3048 0.5715,0.4953 0.3429,0.1905 0.7239,0.28575 0.381,0.0762 0.78105,0.0762 0.4191,0 0.81915,-0.09525 0.40005,-0.09525 0.70485,-0.28575 0.32385,-0.1905 0.51435,-0.43815 0.1905,-0.2667 0.1905,-0.59055 0,-0.6477 -0.4572,-0.97155 -0.43815,-0.32385 -1.1049,-0.4953 -0.66675,-0.1905 -1.4478,-0.32385 -0.762,-0.13335 -1.42875,-0.40005 -0.66675,-0.28575 -1.12395,-0.8001 -0.43815,-0.5334 -0.43815,-1.46685 0,-0.62865 0.3048,-1.12395 0.32385,-0.4953 0.81915,-0.81915 0.51435,-0.3429 1.16205,-0.51435 0.66675,-0.17145 1.35255,-0.17145 1.12395,0 2.11455,0.47625 0.9906,0.4572 1.42875,1.4478 l -1.50495,0.55245 q -0.24765,-0.5715 -0.8763,-0.8382 -0.6096,-0.28575 -1.27635,-0.28575 -0.36195,0 -0.70485,0.09525 -0.3429,0.0762 -0.6096,0.2286 -0.2667,0.1524 -0.43815,0.40005 -0.1524,0.2286 -0.1524,0.5334 0,0.5715 0.43815,0.8382 0.4572,0.2667 1.12395,0.43815 0.66675,0.1524 1.42875,0.28575 0.78105,0.13335 1.4478,0.43815 0.66675,0.3048 1.1049,0.85725 0.4572,0.55245 0.4572,1.5621 0,0.66675 -0.32385,1.20015 -0.32385,0.51435 -0.8763,0.8763 -0.5334,0.36195 -1.2192,0.55245 -0.6858,0.1905 -1.42875,0.1905 -0.6096,0 -1.2192,-0.1524 -0.6096,-0.13335 -1.143,-0.4191 -0.5334,-0.28575 -0.9525,-0.7239 -0.4191,-0.4572 -0.6477,-1.0668 z"
       id="path11205"
       style="font-size:19.05px;font-family:'Atkinson Hyperlegible';-inkscape-font-specification:'Atkinson Hyperlegible';letter-spacing:1.05833px;word-spacing:-1.05833px;fill:#000000;fill-opacity:1;stroke:#000000;stroke-width:1.05833;stroke-linecap:round;stroke-linejoin:round;stroke-opacity:1" />
    <g
       id="path11207"
       style="font-size:19.05px;font-family:'Atkinson Hyperlegible';-inkscape-font-specification:'Atkinson Hyperlegible';letter-spacing:1.05833px;word-spacing:-1.05833px;fill:#30a65d;stroke:none;stroke-width:1.05833;stroke-linecap:round;stroke-linejoin:round"
       transform="translate(-647.18518,44.016872)">
      <path
         style="color:#000000;-inkscape-font-specification:'Atkinson Hyperlegible';fill:#000000;stroke-linecap:butt;stroke-linejoin:miter;-inkscape-stroke:none"
         d="m 774.10168,4.4196 q 0.17145,0.51435 0.4953,0.89535 0.3429,0.381 0.78105,0.62865 0.4572,0.2286 0.97155,0.3619499 0.5334,0.1143 1.04775,0.1143 0.5715,0 1.1049,-0.1333499 0.55245,-0.1524 0.9525,-0.4191 0.4191,-0.28575 0.66675,-0.70485 0.2667,-0.43815 0.2667,-1.00965 0,-0.4381499 -0.17145,-0.7619999 -0.17145,-0.32385 -0.55245,-0.5715 -0.381,-0.2667 -1.00965,-0.47625 -0.6096,-0.20955 -1.524,-0.40005 -0.74295,-0.1524 -1.54305,-0.36195 -0.8001,-0.2286 -1.4859,-0.62864994 -0.66675,-0.41909998 -1.1049,-1.08584995 -0.43815,-0.66674998 -0.43815,-1.71449991 0,-0.8001 0.40005,-1.42875 0.40005,-0.6476999 1.04775,-1.0858499 0.66675,-0.43815 1.50495,-0.66675 0.8382,-0.2286 1.7145,-0.2286 0.66675,0 1.3335,0.1524 0.66675,0.13335 1.23825,0.43815 0.59055,0.28575 1.0668,0.74295 0.47625,0.4381499 0.78105,1.0477499 l -1.6383,0.47625 q -0.381,-0.66675 -1.1811,-1.00965 -0.8001,-0.3428999 -1.6764,-0.3428999 -0.51435,0 -1.00965,0.1333499 -0.4953,0.1143 -0.89535,0.36195 -0.381,0.24765 -0.6096,0.62865 -0.2286,0.36195 -0.2286,0.85725 0,0.5334 0.2667,0.87629994 0.2667,0.34289998 0.7239,0.57149998 0.4572,0.22859999 1.04775,0.38099998 0.59055,0.15239999 1.23825,0.28574999 0.8382,0.17144999 1.65735,0.41909998 0.81915,0.24765003 1.46685,0.66674993 0.6477,0.4191 1.04775,1.1049 0.4191,0.66675 0.4191,1.6954499 0,0.8763 -0.4191,1.58115 -0.4191,0.6857999 -1.12395,1.1620499 -0.6858,0.4572 -1.58115,0.70485 -0.89535,0.24765 -1.8288,0.24765 -0.78105,0 -1.5621,-0.1905 -0.762,-0.17145 -1.42875,-0.5334 -0.6477,-0.381 -1.143,-0.9524999 -0.4953,-0.5715 -0.74295,-1.3335 z"
         id="path11246" />
      <path
         style="color:#000000;-inkscape-font-specification:'Atkinson Hyperlegible';fill:#000000;stroke-linecap:butt;stroke-linejoin:miter;-inkscape-stroke:none"
         d="m 777.22656,-5.7871094 c -0.63021,0 -1.24955,0.08333 -1.85351,0.2480469 -0.60724,0.1656091 -1.162,0.4095808 -1.65625,0.734375 a 0.52921795,0.52921795 0 0 0 -0.008,0.00391 c -0.48819,0.3302462 -0.89193,0.7477778 -1.19726,1.2402343 -3.4e-4,5.334e-4 3.4e-4,0.00142 0,0.00195 -0.32062,0.5045239 -0.48242,1.0900007 -0.48242,1.7109376 0,0.7722615 0.16343,1.45504746 0.52539,2.00585932 0.33181,0.50492528 0.75829,0.92329588 1.26562,1.24218748 a 0.52921795,0.52921795 0 0 0 0.0156,0.00977 c 0.49667,0.2897248 1.03207,0.515859 1.60547,0.6796876 a 0.52921795,0.52921795 0 0 0 0.0117,0.00391 c 0.54182,0.1419047 1.06488,0.2635079 1.57032,0.3671875 0.59466,0.1238872 1.08288,0.253529 1.45898,0.3828125 a 0.52921795,0.52921795 0 0 0 0.004,0.00195 c 0.38563,0.1285441 0.67967,0.269522 0.875,0.40625 a 0.52921795,0.52921795 0 0 0 0.0137,0.011719 c 0.19604,0.1274252 0.31044,0.2530554 0.375,0.375 0.0681,0.1286858 0.10937,0.2905937 0.10937,0.5136718 0,0.2986852 -0.0648,0.5295603 -0.18945,0.734375 a 0.52921795,0.52921795 0 0 0 -0.004,0.00586 c -0.12539,0.2121919 -0.28977,0.3871128 -0.50977,0.5371094 -0.20811,0.1379501 -0.46809,0.255559 -0.7832,0.34375 -10e-4,3.08e-4 -0.003,-3.068e-4 -0.004,0 -0.31132,0.077503 -0.63415,0.1171875 -0.97266,0.1171875 -0.29862,0 -0.6041,-0.033023 -0.91992,-0.099609 -0.30077,-0.078406 -0.58114,-0.18346 -0.8457,-0.3144531 -0.23684,-0.1350392 -0.4465,-0.30362 -0.63477,-0.5117188 -0.16704,-0.1982082 -0.2985,-0.4306558 -0.39257,-0.7128906 a 0.52921795,0.52921795 0 0 0 -0.6543,-0.3398437 L 772.29268,4.40821 a 0.52921795,0.52921795 0 0 0 -0.35156,0.6699219 c 0.18513,0.5696378 0.46785,1.0816029 0.8457,1.5175781 0.36685,0.4232885 0.79474,0.7778093 1.27539,1.0605469 a 0.52921795,0.52921795 0 0 0 0.0156,0.00977 c 0.48673,0.2642226 1.00859,0.4574392 1.56055,0.5820313 10e-4,3.248e-4 0.002,0.00163 0.004,0.00195 0.55692,0.1350376 1.1173,0.203125 1.67773,0.203125 0.6691,0 1.32827,-0.087929 1.97071,-0.265625 0.64408,-0.1781507 1.22543,-0.4360952 1.73437,-0.7753906 a 0.52921795,0.52921795 0 0 0 0.002,-0.00195 c 0.52722,-0.3562279 0.95949,-0.8008968 1.2793,-1.3242187 a 0.52921795,0.52921795 0 0 0 0.004,-0.00586 c 0.32863,-0.5527011 0.49218,-1.1830035 0.49218,-1.8515625 0,-0.7546685 -0.15624,-1.4216403 -0.49804,-1.96875 -0.30509,-0.5196539 -0.71151,-0.9534913 -1.20899,-1.2753906 -0.47731,-0.30884771 -1.01329,-0.5506672 -1.60156,-0.72851562 -0.56158,-0.16977937 -1.13043,-0.31409866 -1.70508,-0.43164063 -0.42391,-0.0872764 -0.82835,-0.18006201 -1.21289,-0.27929688 -0.3637,-0.0938598 -0.678,-0.20911782 -0.94336,-0.34179687 -0.24695,-0.12347602 -0.41819,-0.2659156 -0.54101,-0.4238281 -0.0962,-0.1236399 -0.15625,-0.2833757 -0.15625,-0.5507813 0,-0.2487897 0.0523,-0.4250573 0.14648,-0.5742187 a 0.52921795,0.52921795 0 0 0 0.006,-0.011719 c 0.11073,-0.1845474 0.25331,-0.3299187 0.44141,-0.453125 0.21333,-0.1312794 0.45361,-0.2290789 0.73047,-0.2929687 a 0.52921795,0.52921795 0 0 0 0.0176,-0.00586 c 0.2858,-0.076946 0.57588,-0.1152344 0.87305,-0.1152344 0.51518,0 0.99769,0.099735 1.4668,0.3007813 0.44721,0.1916621 0.73546,0.4452684 0.92968,0.7851562 a 0.52921795,0.52921795 0 0 0 0.60743,0.2460938 l 1.63867,-0.4765625 a 0.52921795,0.52921795 0 0 0 0.32617,-0.7441407 c -0.22874,-0.4574892 -0.52882,-0.8594583 -0.89258,-1.1953124 -0.35344,-0.3386839 -0.75309,-0.6168587 -1.1914,-0.8300782 -0.42096,-0.2231272 -0.87485,-0.3845642 -1.35743,-0.4824218 -10e-4,-2.927e-4 -0.003,2.918e-4 -0.004,0 -0.48059,-0.1095557 -0.96374,-0.1660157 -1.44727,-0.1660157 z m 0,1.0585938 c 0.40418,0 0.8077,0.04561 1.21485,0.1386719 a 0.52921795,0.52921795 0 0 0 0.0137,0.00391 c 0.39698,0.079396 0.75987,0.2066975 1.09375,0.3847656 a 0.52921795,0.52921795 0 0 0 0.0176,0.00977 c 0.3443,0.1665963 0.65323,0.381169 0.93164,0.6484374 a 0.52921795,0.52921795 0 0 0 0.008,0.00781 c 0.10869,0.099997 0.17635,0.2451913 0.26953,0.3613282 l -0.67578,0.1953125 c -0.30072,-0.3575077 -0.60374,-0.7205193 -1.06445,-0.9179688 -0.59769,-0.2561532 -1.23155,-0.3847656 -1.88477,-0.3847656 -0.384,0 -0.76441,0.049968 -1.13477,0.1484375 -0.37902,0.088117 -0.73173,0.2294837 -1.04882,0.4257812 a 0.52921795,0.52921795 0 0 0 -0.01,0.00586 c -0.31584,0.2053 -0.57863,0.4771221 -0.77148,0.796875 -0.20766,0.3319949 -0.3086,0.7240063 -0.3086,1.1328125 0,0.4437938 0.11947,0.86761235 0.37891,1.2011719 0.23278,0.29928697 0.54165,0.53937945 0.9043,0.72070312 0.34424,0.17212064 0.72865,0.3105819 1.15234,0.41992188 0.40286,0.10396492 0.82399,0.20049222 1.26367,0.29101563 0.54295,0.11105779 1.08071,0.24582967 1.61133,0.40624997 0.50393,0.1523513 0.94574,0.3555172 1.33203,0.6054688 0.36299,0.234877 0.6512,0.5373734 0.87891,0.9277344 a 0.52921795,0.52921795 0 0 0 0.008,0.013672 c 0.21415,0.3406892 0.33789,0.8001251 0.33789,1.4140625 0,0.4998399 -0.11358,0.9234489 -0.34375,1.3105469 -0.23866,0.3890384 -0.5539,0.7164763 -0.96484,0.9941406 -0.40501,0.2696684 -0.87698,0.4829675 -1.42578,0.6347656 -0.55136,0.1525038 -1.11395,0.2285157 -1.68946,0.2285157 -0.47768,0 -0.95429,-0.058403 -1.43554,-0.1757813 a 0.52921795,0.52921795 0 0 0 -0.01,-0.00195 C 775.41666,7.1156403 774.99163,6.95497 774.59372,6.7402439 774.21278,6.5154768 773.88018,6.2396464 773.58786,5.9023532 773.42426,5.7135777 773.33375,5.4631753 773.21677,5.2363376 l 0.63672,-0.1914062 c 0.10813,0.2089487 0.18966,0.4366031 0.33984,0.6132812 a 0.52921795,0.52921795 0 0 0 0.01,0.00977 c 0.26544,0.2949259 0.57225,0.5431263 0.91407,0.7363282 a 0.52921795,0.52921795 0 0 0 0.0234,0.011719 c 0.33899,0.1694912 0.69904,0.3045678 1.07618,0.4023438 a 0.52921795,0.52921795 0 0 0 0.0215,0.00391 c 0.38967,0.083502 0.77611,0.1269531 1.1582,0.1269531 0.42216,0 0.83564,-0.048753 1.23438,-0.1484375 a 0.52921795,0.52921795 0 0 0 0.0117,-0.00391 c 0.41301,-0.1139356 0.78393,-0.2739249 1.10547,-0.4882813 a 0.52921795,0.52921795 0 0 0 0.004,-0.00391 c 0.33881,-0.231003 0.61941,-0.5264393 0.82422,-0.8730469 0.22877,-0.3782041 0.3418,-0.8181299 0.3418,-1.2792969 0,-0.3611211 -0.0739,-0.7066518 -0.23438,-1.0097656 -0.1619,-0.3058176 -0.41426,-0.5563376 -0.7207,-0.7578125 -0.31206,-0.2178168 -0.68962,-0.3926327 -1.14062,-0.5429687 -0.43612,-0.1497125 -0.96089,-0.2862026 -1.58399,-0.4160157 a 0.52921795,0.52921795 0 0 0 -0.002,-0.00195 c -0.48156,-0.098747 -0.98362,-0.2154658 -1.50414,-0.351576 l -0.006,-0.00195 c -0.002,-5.426e-4 -0.004,-0.00141 -0.006,-0.00195 C 775.23557,0.92872211 774.79069,0.73919664 774.37891,0.5 c -0.37949,-0.23944324 -0.68812,-0.54135787 -0.93946,-0.92382813 -0.22223,-0.33818721 -0.35156,-0.79909117 -0.35156,-1.42382807 0,-0.4452054 0.1043,-0.8112174 0.31641,-1.1445313 a 0.52921795,0.52921795 0 0 0 0.004,-0.00586 c 0.22715,-0.3677668 0.52028,-0.6715226 0.89258,-0.9238281 8e-4,-5.424e-4 10e-4,-0.00141 0.002,-0.00195 0.3934,-0.2576336 0.83969,-0.457165 1.34766,-0.5957031 0.51364,-0.1400832 1.03799,-0.2089844 1.57617,-0.2089844 z"
         id="path11248" />
    </g>
    <g
       id="path11209"
       style="font-size:19.05px;font-family:'Atkinson Hyperlegible';-inkscape-font-specification:'Atkinson Hyperlegible';letter-spacing:1.05833px;word-spacing:-1.05833px;fill:#30a65d;stroke:none;stroke-width:1.05833;stroke-linecap:round;stroke-linejoin:round"
       transform="translate(-647.18518,44.016872)">
      <path
         style="color:#000000;-inkscape-font-specification:'Atkinson Hyperlegible';fill:#000000;stroke-linecap:butt;stroke-linejoin:miter;-inkscape-stroke:none"
         d="m 786.07567,-1.7525997 v -2.3812499 h 1.6002 v 2.3812499 h 1.8288 v 1.27634992 h -1.8288 V 5.0673 q 0,0.36195 0.019,0.6096 0.019,0.2286 0.1143,0.36195 0.1143,0.13335 0.3048,0.1905 0.1905,0.05715 0.5334,0.05715 h 0.85725 v 1.4096999 h -1.20015 q -0.6858,0 -1.12395,-0.09525 -0.4191,-0.09525 -0.66675,-0.3429 -0.24765,-0.2667 -0.3429,-0.7239 Q 786.07567,6.07695 786.07567,5.334 v -5.81024978 h -1.6002 V -1.7525997 Z"
         id="path11252" />
      <path
         style="color:#000000;-inkscape-font-specification:'Atkinson Hyperlegible';fill:#000000;stroke-linecap:butt;stroke-linejoin:miter;-inkscape-stroke:none"
         d="m 786.07617,-4.6621094 a 0.52921795,0.52921795 0 0 0 -0.5293,0.5273438 V -2.28125 h -1.07226 a 0.52921795,0.52921795 0 0 0 -0.52734,0.5292969 v 1.2753906 a 0.52921795,0.52921795 0 0 0 0.52734,0.52929687 h 1.07226 V 5.3339844 c 0,0.5179015 0.0303,0.947792 0.10547,1.3085937 0.078,0.3743317 0.22994,0.711111 0.47461,0.9746094 a 0.52921795,0.52921795 0 0 0 0.0117,0.015625 c 0.24665,0.246651 0.56975,0.4039022 0.92383,0.484375 a 0.52921795,0.52921795 0 0 0 0.006,0 c 0.3481,0.075674 0.75463,0.1074219 1.23633,0.1074219 h 1.19922 A 0.52921795,0.52921795 0 0 0 790.0332,7.6953125 V 6.2871094 a 0.52921795,0.52921795 0 0 0 -0.52929,-0.5292969 h -0.85743 c -0.1992,0 -0.33755,-0.022166 -0.38086,-0.035156 -0.0252,-0.00756 -0.0223,-0.011008 -0.0293,-0.015625 -10e-4,-0.00412 -0.008,-0.010289 -0.0137,-0.070312 v -0.00391 c -0.011,-0.1451252 -0.0176,-0.3359535 -0.0176,-0.5664063 V 0.05273437 h 1.29883 A 0.52921795,0.52921795 0 0 0 790.0332,-0.4765625 V -1.7519531 A 0.52921795,0.52921795 0 0 0 789.50391,-2.28125 h -1.29883 v -1.8535156 a 0.52921795,0.52921795 0 0 0 -0.5293,-0.5273438 z m 0.5293,1.0566406 h 0.54101 v 1.8535157 a 0.52921795,0.52921795 0 0 0 0.5293,0.5292969 h 1.29883 v 0.2167968 h -1.29883 a 0.52921795,0.52921795 0 0 0 -0.5293,0.5292969 v 5.5429687 c 0,0.250559 0.007,0.4656856 0.0215,0.6503907 a 0.52921795,0.52921795 0 0 0 0,0.00391 c 0.018,0.216714 0.0739,0.4332575 0.21094,0.625 a 0.52921795,0.52921795 0 0 0 0.0293,0.037109 c 0.14643,0.1708298 0.34709,0.2912358 0.55469,0.3535156 0.2107,0.06321 0.4256,0.080078 0.68359,0.080078 h 0.32813 V 7.167972 h -0.66992 c -0.43104,0 -0.77181,-0.033005 -1.00782,-0.083984 -0.19999,-0.045453 -0.31507,-0.1142659 -0.39843,-0.1953125 -0.0835,-0.092327 -0.16097,-0.232392 -0.20899,-0.4628907 -0.0518,-0.2487975 -0.084,-0.6190993 -0.084,-1.0917968 v -5.8105469 a 0.52921795,0.52921795 0 0 0 -0.5293,-0.5292969 h -1.07226 v -0.2167968 h 1.07226 a 0.52921795,0.52921795 0 0 0 0.5293,-0.5292969 z"
         id="path11254" />
    </g>
    <g
       id="path11211"
       style="font-size:19.05px;font-family:'Atkinson Hyperlegible';-inkscape-font-specification:'Atkinson Hyperlegible';letter-spacing:1.05833px;word-spacing:-1.05833px;fill:#30a65d;stroke:none;stroke-width:1.05833;stroke-linecap:round;stroke-linejoin:round"
       transform="translate(-647.18518,44.016872)">
      <path
         style="color:#000000;-inkscape-font-specification:'Atkinson Hyperlegible';fill:#000000;stroke-linecap:butt;stroke-linejoin:miter;-inkscape-stroke:none"
         d="m 796.63994,-1.9049997 q 1.12395,0 1.9812,0.4572 0.85725,0.4381499 1.4097,1.18109991 0.5715,0.74294997 0.81915,1.71449989 0.2667,0.9525 0.1905,1.96215 h -7.2771 q 0.0381,0.8953499 0.32385,1.5049499 0.3048,0.59055 0.7239,0.9525 0.43815,0.3429 0.93345,0.4952999 0.4953,0.1524 0.93345,0.1524 0.8001,0 1.3335,-0.2476499 0.55245,-0.24765 0.8763,-0.6858 l 1.54305,0.4572 q -0.51435,0.8381999 -1.46685,1.3715999 -0.9525,0.51435 -2.286,0.51435 -1.1049,0 -1.9812,-0.381 -0.85725,-0.381 -1.4478,-1.04775 Q 792.65849,5.8293 792.35369,4.93395 q -0.3048,-0.89535 -0.3048,-1.9430999 0,-1.12395 0.3429,-2.01929994 0.36195,-0.91439996 0.97155,-1.54304993 0.62865,-0.64769993 1.46685,-0.99059993 0.8382,-0.3429 1.80975,-0.3429 z m 2.7051,4.0385998 q 0,-0.4953 -0.1905,-0.9715499 -0.1905,-0.49530002 -0.55245,-0.85725001 -0.3429,-0.38099998 -0.8382,-0.60959998 -0.4953,-0.22859999 -1.12395,-0.22859999 -0.5334,0 -1.0287,0.1524 -0.4953,0.15239999 -0.8763,0.47624998 -0.381,0.30479999 -0.6477,0.81914997 -0.24765,0.49529993 -0.3048,1.21919993 z"
         id="path11258" />
      <path
         style="color:#000000;-inkscape-font-specification:'Atkinson Hyperlegible';fill:#000000;stroke-linecap:butt;stroke-linejoin:miter;-inkscape-stroke:none"
         d="m 796.64062,-2.4335938 c -0.70995,0 -1.3866,0.1251314 -2.01171,0.3808594 -0.62396,0.2552552 -1.17608,0.6306271 -1.64454,1.11328127 -0.45922,0.47357466 -0.82054,1.05125671 -1.08398,1.71679688 a 0.52921795,0.52921795 0 0 0 -0.002,0.005859 c -0.25505,0.66596135 -0.37891,1.40391865 -0.37891,2.20703125 0,0.7498121 0.11049,1.4567711 0.33399,2.1132812 0.22388,0.6576618 0.55831,1.2454592 1,1.7441406 0.44479,0.502185 0.99393,0.8974757 1.6289,1.1796876 a 0.52921795,0.52921795 0 0 0 0.004,0.00195 c 0.65878,0.2864256 1.39398,0.4238281 2.1914,0.4238281 0.95704,0 1.81127,-0.1842161 2.53711,-0.5761719 a 0.52921795,0.52921795 0 0 0 0.008,-0.00391 c 0.70267,-0.3934954 1.26727,-0.9163814 1.66015,-1.5566407 a 0.52921795,0.52921795 0 0 0 -0.301,-0.7851489 l -1.54297,-0.4570313 a 0.52921795,0.52921795 0 0 0 -0.57617,0.1933594 c -0.15874,0.2147601 -0.37074,0.3843398 -0.66797,0.5175781 a 0.52921795,0.52921795 0 0 0 -0.006,0.00195 c -0.26394,0.1225433 -0.63252,0.1992187 -1.11133,0.1992187 -0.23074,0 -0.48906,-0.040204 -0.77734,-0.1289062 -0.26067,-0.080205 -0.50841,-0.2116822 -0.75,-0.3984375 -0.21408,-0.1865323 -0.41147,-0.4409723 -0.58594,-0.7753907 -0.0866,-0.1858935 -0.10859,-0.4867051 -0.15625,-0.7441406 h 6.63282 a 0.52921795,0.52921795 0 0 0 0.52734,-0.4902343 c 0.0551,-0.7304291 -0.0154,-1.4474428 -0.20899,-2.1406251 -0.1807,-0.70437742 -0.48237,-1.34011908 -0.90429,-1.89062495 -0.41513,-0.55827525 -0.95281,-1.00605325 -1.58789,-1.33203125 -0.65546,-0.3488086 -1.40688,-0.5195313 -2.22657,-0.5195313 z m 0,1.0585938 c 0.67755,0 1.24566,0.1349206 1.73243,0.39453125 a 0.52921795,0.52921795 0 0 0 0.008,0.003906 c 0.50459,0.2579021 0.90479,0.59529045 1.22461,1.02539062 a 0.52921795,0.52921795 0 0 0 0.006,0.0078125 c 0.33555,0.43622262 0.57755,0.93690924 0.72656,1.52148433 a 0.52921795,0.52921795 0 0 0 0.002,0.011719 c 0.11683,0.4172508 0.11912,0.8549724 0.12696,1.2910158 h -6.70313 a 0.52921795,0.52921795 0 0 0 -0.5293,0.5507811 c 0.0276,0.6479444 0.14413,1.2186657 0.37305,1.7070313 a 0.52921795,0.52921795 0 0 0 0.01,0.019531 c 0.22832,0.4423837 0.50854,0.8165014 0.84765,1.109375 a 0.52921795,0.52921795 0 0 0 0.0195,0.015625 c 0.33835,0.2647938 0.71057,0.4644296 1.10547,0.5859375 0.37212,0.1144981 0.73444,0.1757813 1.08789,0.1757813 0.58573,0 1.10469,-0.088979 1.55079,-0.2949219 l 0.002,-0.00195 c 0.30232,-0.1358522 0.51773,-0.3689609 0.74609,-0.5878907 l 0.4375,0.1289063 c -0.22521,0.2233559 -0.39147,0.4821562 -0.70508,0.6582031 -0.54355,0.2926911 -1.21195,0.4492188 -2.03125,0.4492188 -0.67505,0 -1.25834,-0.1167783 -1.76757,-0.3378907 h -0.002 c -0.50611,-0.2255868 -0.92201,-0.5283143 -1.26367,-0.9140625 -0.34571,-0.3903175 -0.60655,-0.8447222 -0.78906,-1.3808593 -0.18291,-0.5372887 -0.27734,-1.1262512 -0.27735,-1.7734375 0,-0.6931991 0.10579,-1.2975999 0.30665,-1.8242188 l 0.002,-0.00195 c 0.21901,-0.55239539 0.50443,-1.00317034 0.85742,-1.36718745 0.36947,-0.38035156 0.79398,-0.66740664 1.28711,-0.86914065 0.49249,-0.2014715 1.02393,-0.3027344 1.60937,-0.3027344 z m 0,0.3125 c -0.40599,0 -0.80431,0.058479 -1.18554,0.17578125 -0.3916,0.12049193 -0.74718,0.31443099 -1.05469,0.57421875 -0.31791,0.25573633 -0.57881,0.58822944 -0.7832,0.98242187 a 0.52921795,0.52921795 0 0 0 -0.004,0.007813 c -0.20393,0.40786923 -0.31535,0.88111893 -0.35742,1.41406253 a 0.52921795,0.52921795 0 0 0 0.52734,0.5703125 h 5.5625 a 0.52921795,0.52921795 0 0 0 0.5293,-0.5292969 c 0,-0.3953515 -0.0781,-0.7862316 -0.22656,-1.16015625 -0.14975,-0.38935536 -0.37407,-0.73788045 -0.66211,-1.02929687 -0.27663,-0.30473652 -0.61432,-0.55050996 -1,-0.72851563 C 797.57879,-0.97325254 797.12387,-1.0625 796.64062,-1.0625 Z m 0,1.05859375 c 0.35496,0 0.64949,0.06298411 0.90235,0.1796875 0.27082,0.12499651 0.48696,0.28347313 0.66601,0.48242187 a 0.52921795,0.52921795 0 0 0 0.0195,0.0214844 c 0.18878,0.18878384 0.32944,0.40616998 0.43164,0.67187498 a 0.52921795,0.52921795 0 0 0 0.004,0.00781 c 0.0327,0.081729 0.0268,0.1629638 0.0488,0.2441406 h -4.26367 c 0.0396,-0.1447858 0.0542,-0.3382879 0.10937,-0.4492187 0.1495,-0.28708901 0.32114,-0.49714074 0.50782,-0.64648438 a 0.52921795,0.52921795 0 0 0 0.0117,-0.009766 c 0.199,-0.16914364 0.4235,-0.29121491 0.68946,-0.37304688 0.27917,-0.08589772 0.56784,-0.12890625 0.87304,-0.12890625 z"
         id="path11260" />
    </g>
    <g
       id="path11213"
       style="font-size:19.05px;font-family:'Atkinson Hyperlegible';-inkscape-font-specification:'Atkinson Hyperlegible';letter-spacing:1.05833px;word-spacing:-1.05833px;fill:#30a65d;stroke:none;stroke-width:1.05833;stroke-linecap:round;stroke-linejoin:round"
       transform="translate(-647.18518,44.016872)">
      <path
         style="color:#000000;-inkscape-font-specification:'Atkinson Hyperlegible';fill:#000000;stroke-linecap:butt;stroke-linejoin:miter;-inkscape-stroke:none"
         d="m 807.96621,-1.9049997 q 1.12395,0 1.9812,0.4572 0.85725,0.4381499 1.4097,1.18109991 0.5715,0.74294997 0.81915,1.71449989 0.2667,0.9525 0.1905,1.96215 h -7.2771 q 0.0381,0.8953499 0.32385,1.5049499 0.3048,0.59055 0.7239,0.9525 0.43815,0.3429 0.93345,0.4952999 0.4953,0.1524 0.93345,0.1524 0.8001,0 1.3335,-0.2476499 0.55245,-0.24765 0.8763,-0.6858 l 1.54305,0.4572 q -0.51435,0.8381999 -1.46685,1.3715999 -0.9525,0.51435 -2.286,0.51435 -1.1049,0 -1.9812,-0.381 -0.85725,-0.381 -1.4478,-1.04775 Q 803.98476,5.8293 803.67996,4.93395 q -0.3048,-0.89535 -0.3048,-1.9430999 0,-1.12395 0.3429,-2.01929994 0.36195,-0.91439996 0.97155,-1.54304993 0.62865,-0.64769993 1.46685,-0.99059993 0.8382,-0.3429 1.80975,-0.3429 z m 2.7051,4.0385998 q 0,-0.4953 -0.1905,-0.9715499 -0.1905,-0.49530002 -0.55245,-0.85725001 -0.3429,-0.38099998 -0.8382,-0.60959998 -0.4953,-0.22859999 -1.12395,-0.22859999 -0.5334,0 -1.0287,0.1524 -0.4953,0.15239999 -0.8763,0.47624998 -0.381,0.30479999 -0.6477,0.81914997 -0.24765,0.49529993 -0.3048,1.21919993 z"
         id="path11264" />
      <path
         style="color:#000000;-inkscape-font-specification:'Atkinson Hyperlegible';fill:#000000;stroke-linecap:butt;stroke-linejoin:miter;-inkscape-stroke:none"
         d="m 807.9668,-2.4335938 c -0.70996,0 -1.38466,0.1251314 -2.00977,0.3808594 -0.62396,0.2552552 -1.17802,0.6306271 -1.64648,1.11328127 -0.45923,0.47357466 -0.82054,1.05125671 -1.08399,1.71679688 a 0.52921795,0.52921795 0 0 0 -0.002,0.005859 c -0.25505,0.66596135 -0.37891,1.40391865 -0.37891,2.20703125 0,0.7498121 0.11049,1.4567711 0.33399,2.1132812 0.22388,0.6576618 0.55831,1.2454592 1,1.7441406 0.44479,0.502185 0.99393,0.8974757 1.6289,1.1796876 a 0.52921795,0.52921795 0 0 0 0.004,0.00195 c 0.65878,0.2864256 1.39398,0.4238281 2.19141,0.4238281 0.95703,0 1.81126,-0.1842161 2.53711,-0.5761719 a 0.52921795,0.52921795 0 0 0 0.008,-0.00391 c 0.70267,-0.3934954 1.26727,-0.9163814 1.66015,-1.5566407 A 0.52921795,0.52921795 0 0 0 811.9082,5.53125 l -1.54297,-0.4570313 a 0.52921795,0.52921795 0 0 0 -0.57617,0.1933594 c -0.15873,0.2147601 -0.37074,0.3843398 -0.66797,0.5175781 a 0.52921795,0.52921795 0 0 0 -0.006,0.00195 c -0.26394,0.1225433 -0.63252,0.1992187 -1.11132,0.1992187 -0.23075,0 -0.48907,-0.040204 -0.77735,-0.1289062 -0.26066,-0.080205 -0.50841,-0.2116822 -0.75,-0.3984375 -0.21408,-0.1865323 -0.41147,-0.4409723 -0.58594,-0.7753907 -0.0866,-0.1858935 -0.10859,-0.4867051 -0.15625,-0.7441406 h 6.63282 a 0.52921795,0.52921795 0 0 0 0.52734,-0.4902343 c 0.0551,-0.7304291 -0.0154,-1.4474428 -0.20898,-2.1406251 -0.18071,-0.70437742 -0.48238,-1.34011908 -0.9043,-1.89062495 -0.41513,-0.55827525 -0.95281,-1.00605325 -1.58789,-1.33203125 -0.65546,-0.3488086 -1.40688,-0.5195313 -2.22656,-0.5195313 z m 0,1.0585938 c 0.67755,0 1.24565,0.1349206 1.73242,0.39453125 a 0.52921795,0.52921795 0 0 0 0.008,0.003906 c 0.50459,0.2579021 0.90479,0.59529045 1.22461,1.02539062 a 0.52921795,0.52921795 0 0 0 0.006,0.0078125 c 0.33556,0.43622262 0.57755,0.93690924 0.72656,1.52148433 a 0.52921795,0.52921795 0 0 0 0.002,0.011719 c 0.11683,0.4172508 0.11911,0.8549724 0.12695,1.2910158 h -6.70313 a 0.52921795,0.52921795 0 0 0 -0.52929,0.5507811 c 0.0276,0.6479444 0.14412,1.2186657 0.37304,1.7070313 a 0.52921795,0.52921795 0 0 0 0.01,0.019531 c 0.22833,0.4423837 0.50854,0.8165014 0.84766,1.109375 a 0.52921795,0.52921795 0 0 0 0.0195,0.015625 c 0.33834,0.2647938 0.71056,0.4644296 1.10547,0.5859375 0.37211,0.1144981 0.73443,0.1757813 1.08789,0.1757813 0.58572,0 1.10468,-0.088979 1.55078,-0.2949219 l 0.002,-0.00195 c 0.30247,-0.1359202 0.51961,-0.3688109 0.74805,-0.5878907 l 0.43554,0.1289063 c -0.22521,0.2233559 -0.39146,0.4821562 -0.70507,0.6582031 -0.54356,0.2926911 -1.21196,0.4492188 -2.03125,0.4492188 -0.67506,0 -1.25834,-0.1167783 -1.76758,-0.3378907 h -0.002 c -0.50611,-0.2255868 -0.922,-0.5283143 -1.26367,-0.9140625 -0.34571,-0.3903175 -0.60654,-0.8447222 -0.78906,-1.3808593 -0.18291,-0.5372887 -0.27734,-1.1262512 -0.27734,-1.7734375 0,-0.6931991 0.10578,-1.2975999 0.30664,-1.8242188 l 0.002,-0.00195 c 0.21902,-0.55239539 0.50444,-1.00317034 0.85742,-1.36718745 0.36947,-0.38035156 0.79398,-0.66740664 1.28711,-0.86914065 0.49186,-0.2014775 1.0233,-0.3027404 1.60875,-0.3027404 z m 0,0.3125 c -0.406,0 -0.80432,0.058479 -1.18555,0.17578125 -0.3916,0.12049193 -0.74718,0.31443099 -1.05469,0.57421875 -0.31791,0.25573633 -0.5788,0.58822944 -0.7832,0.98242187 a 0.52921795,0.52921795 0 0 0 -0.004,0.007813 c -0.20393,0.40786923 -0.31534,0.88111893 -0.35742,1.41406253 a 0.52921795,0.52921795 0 0 0 0.52734,0.5703125 h 5.5625 a 0.52921795,0.52921795 0 0 0 0.5293,-0.5292969 c 0,-0.3953515 -0.0781,-0.7862316 -0.22656,-1.16015625 -0.14975,-0.38935536 -0.37407,-0.73788045 -0.66211,-1.02929687 -0.27663,-0.30473652 -0.61432,-0.55050996 -1,-0.72851563 C 808.90496,-0.97325254 808.45004,-1.0625 807.9668,-1.0625 Z m 0,1.05859375 c 0.35496,0 0.64948,0.06298411 0.90234,0.1796875 0.27083,0.12499651 0.48696,0.28347313 0.66602,0.48242187 a 0.52921795,0.52921795 0 0 0 0.0195,0.0214844 c 0.18878,0.18878384 0.32944,0.40616998 0.43164,0.67187498 a 0.52921795,0.52921795 0 0 0 0.004,0.00781 c 0.0327,0.081729 0.0268,0.1629638 0.0488,0.2441406 h -4.26367 c 0.0396,-0.1447858 0.0542,-0.3382879 0.10938,-0.4492187 0.14949,-0.28708901 0.32113,-0.49714074 0.50781,-0.64648438 a 0.52921795,0.52921795 0 0 0 0.0117,-0.009766 c 0.19899,-0.16914364 0.4235,-0.29121491 0.68945,-0.37304688 0.27917,-0.08589772 0.56784,-0.12890625 0.87305,-0.12890625 z"
         id="path11266" />
    </g>
    <g
       id="path11215"
       style="font-size:19.05px;font-family:'Atkinson Hyperlegible';-inkscape-font-specification:'Atkinson Hyperlegible';letter-spacing:1.05833px;word-spacing:-1.05833px;fill:#30a65d;stroke:none;stroke-width:1.05833;stroke-linecap:round;stroke-linejoin:round"
       transform="translate(-647.18518,44.016872)">
      <path
         style="color:#000000;-inkscape-font-specification:'Atkinson Hyperlegible';fill:#000000;stroke-linecap:butt;stroke-linejoin:miter;-inkscape-stroke:none"
         d="m 815.31103,-1.7525997 h 1.16205 L 816.98743,2.0217895e-7 Q 817.48273,-0.85724976 818.32093,-1.3715997 q 0.8382,-0.5334 2.03835,-0.5334 v 1.65734991 q -0.97155,0 -1.6383,0.26669999 -0.6477,0.24764999 -1.0668,0.74294997 -0.40005,0.47625003 -0.5715,1.20014993 -0.17145,0.7239 -0.17145,1.6764 v 4.0576498 h -1.6002 z"
         id="path11270" />
      <path
         style="color:#000000;-inkscape-font-specification:'Atkinson Hyperlegible';fill:#000000;stroke-linecap:butt;stroke-linejoin:miter;-inkscape-stroke:none"
         d="m 820.35937,-2.4335938 c -0.87623,0 -1.66209,0.1984521 -2.3164,0.6132813 -0.33153,0.2037244 -0.53414,0.5406943 -0.79688,0.8183594 l -0.26562,-0.9003906 A 0.52921795,0.52921795 0 0 0 816.47266,-2.28125 h -1.16211 a 0.52921795,0.52921795 0 0 0 -0.5293,0.5292969 v 9.4472656 a 0.52921795,0.52921795 0 0 0 0.5293,0.5292969 h 1.60156 a 0.52921795,0.52921795 0 0 0 0.52734,-0.5292969 V 3.6386719 c 0,-0.6032495 0.0559,-1.1227358 0.15821,-1.5546875 0.0989,-0.4174267 0.25571,-0.7357264 0.46093,-0.9804688 0.22067,-0.26078405 0.49412,-0.45317477 0.85157,-0.58984373 a 0.52921795,0.52921795 0 0 0 0.008,-0.003906 C 819.28018,0.36488162 819.7601,0.28125 820.35937,0.28125 a 0.52921795,0.52921795 0 0 0 0.5293,-0.52929688 V -1.9042969 a 0.52921795,0.52921795 0 0 0 -0.5293,-0.5292969 z m -0.52929,1.1933594 v 0.55078128 c -0.45847,0.0397112 -0.92541,0.0661753 -1.29883,0.21484374 -8.8e-4,3.3682e-4 -10e-4,0.001616 -0.002,0.001953 -0.50504,0.19357165 -0.94175,0.49365835 -1.2793,0.89257813 a 0.52921795,0.52921795 0 0 0 -0.002,0.001953 c -0.32769,0.39009829 -0.55012,0.87087765 -0.67969,1.41796865 -0.1263,0.5332475 -0.18555,1.132079 -0.18555,1.7988283 v 3.5292967 h -0.54297 v -8.3906249 h 0.23633 l 0.4043,1.37109375 a 0.52921795,0.52921795 0 0 0 0.96484,0.1171875 c 0.28845,-0.49923474 0.66564,-0.88688758 1.15235,-1.18554688 a 0.52921795,0.52921795 0 0 0 0.008,-0.005859 c 0.32283,-0.20543757 0.78167,-0.24971457 1.22461,-0.31445317 z"
         id="path11272" />
    </g>
    <path
       id="path11220"
       style="color:#000000;font-size:19.05px;font-family:'Atkinson Hyperlegible';-inkscape-font-specification:'Atkinson Hyperlegible';letter-spacing:1.05833px;word-spacing:-1.05833px;fill:#30a65d;fill-opacity:1;stroke:none;stroke-width:1.05833;stroke-linecap:butt;stroke-linejoin:miter;-inkscape-stroke:none"
       d="m 70.748778,49.640145 -2.84996,2.601391 h 7.0528 a 0.52921795,0.52921795 0 0 0 0.52917,-0.529166 v -1.543059 a 0.52921795,0.52921795 0 0 0 -0.52917,-0.529166 z" />
    <path
       id="path11963"
       style="color:#000000;font-size:19.05px;font-family:'Atkinson Hyperlegible';-inkscape-font-specification:'Atkinson Hyperlegible';letter-spacing:1.05833px;word-spacing:-1.05833px;fill:#000000;stroke:none;stroke-width:1.05833;stroke-linecap:butt;stroke-linejoin:miter;-inkscape-stroke:none"
       d="m 66.322688,38.458398 a 0.52921795,0.52921795 0 0 0 -0.52917,0.529167 v 11.331091 l 2.84944,-2.601391 v -8.7297 a 0.52921795,0.52921795 0 0 0 -0.52917,-0.529167 z" />
  </g>
</svg>
